# Blender 4.4.3
# www.blender.org
mtllib Tire.mtl
o Tire
v -0.011776 -0.000001 0.936967
v 1.300316 1.312230 0.953446
v 1.532180 1.029400 0.956375
v 1.748591 0.586850 0.959062
v 1.843844 -0.000001 0.960264
v 1.748591 -0.586851 0.959062
v 1.532180 -1.029396 0.956376
v 1.300316 -1.312227 0.953447
v 1.300316 -1.312227 0.953447
v 1.017569 -1.544094 0.949843
v 0.575016 -1.760538 0.944299
v -0.011776 -1.855770 0.936968
v -0.598559 -1.760538 0.929536
v -1.041110 -1.544094 0.923992
v -1.323957 -1.312227 0.920378
v -1.323957 -1.312227 0.920378
v -1.555723 -1.029396 0.917459
v -1.772233 -0.586851 0.914763
v -1.867387 -0.000001 0.913571
v -1.772233 0.586850 0.914763
v -1.555723 1.029400 0.917459
v -1.323859 1.312230 0.920388
v -1.323957 1.312230 0.920378
v -1.041110 1.544089 0.923992
v -0.598559 1.760539 0.929536
v -0.011776 1.855770 0.936967
v 0.575016 1.760539 0.944298
v 1.017569 1.544089 0.949843
v 1.300316 1.312230 0.953446
v -1.300452 1.312229 -0.941353
v -1.323957 1.312230 0.920378
v -1.017703 1.544089 -0.937748
v -1.041110 1.544089 0.923992
v -0.575152 1.760539 -0.932204
v -0.598559 1.760539 0.929536
v 0.011630 1.855769 -0.924773
v -0.011776 1.855770 0.936967
v 0.598423 1.760539 -0.917441
v 0.575016 1.760539 0.944298
v 1.040976 1.544089 -0.911897
v 1.017569 1.544089 0.949843
v 1.323725 1.312229 -0.908293
v 1.300316 1.312230 0.953446
v -1.323957 1.312230 0.920378
v -1.300452 1.312229 -0.941353
v -1.555723 1.029400 0.917459
v -1.532316 1.029399 -0.944281
v -1.772233 0.586850 0.914763
v -1.748725 0.586849 -0.946967
v -1.867387 -0.000001 0.913571
v -1.843980 -0.000001 -0.948169
v -1.772233 -0.586851 0.914763
v -1.748725 -0.586851 -0.946967
v -1.555723 -1.029396 0.917459
v -1.532316 -1.029397 -0.944281
v -1.323859 -1.312227 0.920388
v -1.300452 -1.312228 -0.941352
v 0.011630 -0.000001 -0.924773
v -1.300452 1.312229 -0.941353
v -1.532316 1.029399 -0.944281
v -1.748725 0.586849 -0.946967
v -1.843980 -0.000001 -0.948169
v -1.748725 -0.586851 -0.946967
v -1.532316 -1.029397 -0.944281
v -1.300452 -1.312228 -0.941352
v -1.300452 -1.312228 -0.941352
v -1.017703 -1.544095 -0.937748
v -0.575152 -1.760538 -0.932204
v 0.011630 -1.855770 -0.924773
v 0.598423 -1.760538 -0.917441
v 1.040976 -1.544095 -0.911897
v 1.323725 -1.312228 -0.908293
v 1.323725 -1.312228 -0.908293
v 1.555587 -1.029397 -0.905365
v 1.771998 -0.586851 -0.902678
v 1.867251 -0.000001 -0.901477
v 1.771998 0.586849 -0.902678
v 1.555587 1.029399 -0.905366
v 1.323725 1.312229 -0.908293
v 1.323725 1.312229 -0.908293
v 1.040976 1.544089 -0.911897
v 0.598423 1.760539 -0.917441
v 0.011630 1.855769 -0.924773
v -0.575152 1.760539 -0.932204
v -1.017703 1.544089 -0.937748
v -1.300452 1.312229 -0.941353
v 1.323725 -1.312228 -0.908293
v 1.300316 -1.312227 0.953447
v 1.040976 -1.544095 -0.911897
v 1.017569 -1.544094 0.949843
v 0.598423 -1.760538 -0.917441
v 0.575016 -1.760538 0.944299
v 0.011630 -1.855770 -0.924773
v -0.011776 -1.855770 0.936968
v -0.575152 -1.760538 -0.932204
v -0.598559 -1.760538 0.929536
v -1.017703 -1.544095 -0.937748
v -1.041110 -1.544094 0.923992
v -1.300452 -1.312228 -0.941352
v -1.323957 -1.312227 0.920378
v 1.323725 1.312229 -0.908293
v 1.300316 1.312230 0.953446
v 1.555587 1.029399 -0.905366
v 1.532180 1.029400 0.956375
v 1.771998 0.586849 -0.902678
v 1.748591 0.586850 0.959062
v 1.867251 -0.000001 -0.901477
v 1.843844 -0.000001 0.960264
v 1.771998 -0.586851 -0.902678
v 1.748591 -0.586851 0.959062
v 1.555587 -1.029397 -0.905365
v 1.532180 -1.029396 0.956376
v 1.323725 -1.312228 -0.908293
v 1.300316 -1.312227 0.953447
v 0.312498 0.000000 0.941061
v -0.011783 -0.324303 0.936972
v -0.336056 0.000006 0.932878
v -0.011783 0.324302 0.936972
v 1.283477 0.971080 0.953246
v 1.337926 0.904662 0.953935
v 1.527692 0.516599 0.956289
v 1.611543 -0.000001 0.957348
v 1.527692 -0.516600 0.956289
v 1.337926 -0.904659 0.953935
v 1.283476 -0.971078 0.953246
v 0.959211 -1.295396 0.949129
v 0.892834 -1.349829 0.948281
v 0.504776 -1.539620 0.943421
v -0.011777 -1.623452 0.936971
v -0.528319 -1.539620 0.930424
v -0.916393 -1.349820 0.925568
v -0.982816 -1.295370 0.924715
v -1.307075 -0.971047 0.920599
v -1.361472 -0.904664 0.919913
v -1.551329 -0.516596 0.917550
v -1.635092 -0.000001 0.916501
v -1.551329 0.516596 0.917550
v -1.361482 0.904646 0.919913
v -1.307020 0.971079 0.920601
v -0.982813 1.295369 0.924715
v -0.916394 1.349815 0.925567
v -0.528318 1.539621 0.930423
v -0.011777 1.623452 0.936971
v 0.504775 1.539621 0.943421
v 0.892834 1.349824 0.948281
v 0.959209 1.295395 0.949129
v -0.312643 -0.000000 -0.928869
v 0.011631 -0.324309 -0.924774
v 0.335905 -0.000000 -0.920681
v 0.011631 0.324308 -0.924774
v -1.283614 0.971079 -0.941139
v -1.338062 0.904662 -0.941828
v -1.527827 0.516599 -0.944181
v -1.611679 -0.000001 -0.945240
v -1.527827 -0.516600 -0.944181
v -1.338062 -0.904659 -0.941828
v -1.283612 -0.971078 -0.941139
v -0.959348 -1.295395 -0.937022
v -0.892969 -1.349829 -0.936173
v -0.504912 -1.539620 -0.931317
v 0.011630 -1.623453 -0.924769
v 0.528183 -1.539620 -0.918318
v 0.916241 -1.349829 -0.913459
v 0.982619 -1.295395 -0.912610
v 1.306884 -0.971078 -0.908494
v 1.361332 -0.904659 -0.907805
v 1.551099 -0.516600 -0.905452
v 1.634950 -0.000001 -0.904392
v 1.551099 0.516599 -0.905453
v 1.361332 0.904662 -0.907805
v 1.306884 0.971079 -0.908495
v 0.982617 1.295394 -0.912610
v 0.916241 1.349823 -0.913459
v 0.528181 1.539621 -0.918319
v 0.011630 1.623452 -0.924770
v -0.504911 1.539621 -0.931317
v -0.892969 1.349823 -0.936174
v -0.959346 1.295393 -0.937022
v -0.313786 -0.000000 -0.838070
v -1.284757 0.971079 -0.850341
v -1.339205 0.904662 -0.851030
v -1.528970 0.516599 -0.853383
v -1.612822 -0.000001 -0.854442
v -1.528970 -0.516600 -0.853382
v -1.339205 -0.904659 -0.851030
v -1.284756 -0.971078 -0.850340
v 0.010488 -0.324309 -0.833976
v -0.960491 -1.295395 -0.846224
v -0.894112 -1.349829 -0.845375
v -0.506055 -1.539620 -0.840518
v 0.010487 -1.623453 -0.833971
v 0.527040 -1.539620 -0.827520
v 0.915098 -1.349829 -0.822660
v 0.981476 -1.295395 -0.821812
v 0.334762 -0.000000 -0.829882
v 1.305741 -0.971078 -0.817696
v 1.360190 -0.904659 -0.817007
v 1.549956 -0.516600 -0.814653
v 1.633807 -0.000001 -0.813594
v 1.549956 0.516599 -0.814654
v 1.360189 0.904662 -0.817007
v 1.305741 0.971079 -0.817696
v 0.010488 0.324308 -0.833976
v 0.981474 1.295394 -0.821812
v 0.915098 1.349823 -0.822661
v 0.527039 1.539621 -0.827520
v 0.010487 1.623452 -0.833972
v -0.506054 1.539621 -0.840519
v -0.894112 1.349824 -0.845376
v -0.960489 1.295394 -0.846224
v 0.314218 0.000000 0.804460
v 1.285197 0.971080 0.816644
v 1.339646 0.904662 0.817334
v 1.529412 0.516599 0.819688
v 1.613263 0.000000 0.820747
v 1.529412 -0.516600 0.819688
v 1.339646 -0.904659 0.817334
v 1.285196 -0.971078 0.816645
v -0.010062 -0.324303 0.800371
v 0.960931 -1.295396 0.812528
v 0.894554 -1.349829 0.811680
v 0.506496 -1.539620 0.806820
v -0.010057 -1.623452 0.800370
v -0.526599 -1.539620 0.793823
v -0.914673 -1.349820 0.788966
v -0.981096 -1.295370 0.788114
v -0.334336 0.000006 0.796276
v -1.305355 -0.971047 0.783998
v -1.359752 -0.904664 0.783312
v -1.549609 -0.516596 0.780949
v -1.633372 0.000000 0.779900
v -1.549609 0.516596 0.780949
v -1.359762 0.904646 0.783312
v -1.305301 0.971080 0.784000
v -0.010062 0.324302 0.800371
v -0.981093 1.295369 0.788114
v -0.914674 1.349815 0.788965
v -0.526598 1.539622 0.793822
v -0.010057 1.623452 0.800369
v 0.506495 1.539621 0.806819
v 0.894554 1.349824 0.811679
v 0.960929 1.295395 0.812528
vn -0.3753 0.5711 0.7300
vn -0.4120 0.0194 0.9110
vn -0.8262 0.0404 0.5620
vn -0.4042 0.6149 0.6772
vn 0.5628 0.3661 0.7411
vn 0.0084 0.4019 0.9157
vn 0.0333 0.8190 0.5728
vn 0.6064 0.3949 0.6902
vn 0.3567 -0.5720 0.7386
vn 0.3902 -0.0199 0.9205
vn 0.8117 -0.0405 0.5827
vn 0.3864 -0.6153 0.6871
vn -0.0307 0.4017 0.9153
vn -0.5799 0.3676 0.7271
vn -0.6242 0.3956 0.6737
vn -0.0476 0.8190 0.5718
vn 0.3898 0.0195 0.9207
vn 0.3580 0.5721 0.7379
vn 0.3861 0.6158 0.6868
vn 0.8115 0.0405 0.5830
vn 0.0078 -0.4015 0.9158
vn 0.5627 -0.3673 0.7406
vn 0.6070 -0.3948 0.6897
vn 0.0332 -0.8188 0.5731
vn -0.4120 -0.0200 0.9110
vn -0.3756 -0.5721 0.7291
vn -0.4033 -0.6153 0.6773
vn -0.8262 -0.0404 0.5620
vn -0.6477 0.2039 0.7341
vn -0.7111 0.2239 0.6665
vn 0.1942 0.6400 0.7434
vn 0.2144 0.7028 0.6783
vn 0.6306 -0.2035 0.7490
vn 0.6943 -0.2229 0.6843
vn -0.2124 -0.6402 0.7383
vn -0.2312 -0.7027 0.6729
vn -0.6756 -0.0000 0.7372
vn -0.7482 0.0005 0.6635
vn -0.0094 0.6677 0.7443
vn -0.0089 0.7399 0.6727
vn 0.6585 -0.0000 0.7526
vn 0.7313 0.0005 0.6820
vn -0.0093 -0.6678 0.7443
vn -0.0080 -0.7399 0.6727
vn -0.6478 -0.2039 0.7340
vn -0.7108 -0.2228 0.6671
vn -0.7045 0.7097 -0.0072
vn -0.5524 0.8335 -0.0079
vn -0.5525 0.8335 -0.0079
vn -0.3177 0.9482 -0.0001
vn -0.0000 1.0000 -0.0000
vn 0.3177 0.9482 0.0001
vn 0.5524 0.8336 0.0079
vn 0.5524 0.8335 0.0079
vn 0.7044 0.7097 0.0072
vn -0.7046 0.7096 -0.0072
vn -0.8329 0.5533 -0.0120
vn -0.9491 0.3150 -0.0081
vn -0.9491 0.3150 -0.0080
vn -0.9999 -0.0000 -0.0134
vn -0.9999 -0.0000 -0.0132
vn -0.9491 -0.3150 -0.0081
vn -0.9491 -0.3150 -0.0080
vn -0.8329 -0.5533 -0.0120
vn -0.7046 -0.7096 -0.0072
vn 0.3770 -0.5717 -0.7287
vn 0.2126 -0.6401 -0.7383
vn 0.2312 -0.7027 -0.6728
vn 0.4041 -0.6149 -0.6772
vn 0.6482 0.2026 -0.7340
vn 0.6757 -0.0000 -0.7372
vn 0.7483 0.0005 -0.6634
vn 0.7114 0.2231 -0.6664
vn -0.1951 0.6390 -0.7441
vn 0.0093 0.6679 -0.7442
vn 0.0091 0.7399 -0.6726
vn -0.2148 0.7022 -0.6788
vn -0.6296 -0.2045 -0.7495
vn -0.6585 -0.0000 -0.7526
vn -0.7314 0.0007 -0.6820
vn -0.6936 -0.2233 -0.6849
vn 0.0093 -0.6679 -0.7442
vn 0.0080 -0.7399 -0.6727
vn 0.6479 -0.2038 -0.7339
vn 0.7109 -0.2232 -0.6669
vn 0.2126 0.6400 -0.7383
vn 0.2324 0.7026 -0.6725
vn -0.6307 0.2035 -0.7489
vn -0.6940 0.2239 -0.6843
vn -0.1943 -0.6400 -0.7434
vn -0.2154 -0.7025 -0.6783
vn 0.5800 -0.3676 -0.7270
vn 0.6238 -0.3950 -0.6744
vn 0.3757 0.5722 -0.7290
vn 0.4042 0.6156 -0.6765
vn -0.5628 0.3673 -0.7405
vn -0.6065 0.3957 -0.6896
vn -0.3580 -0.5721 -0.7379
vn -0.3870 -0.6153 -0.6868
vn 0.0314 -0.4019 -0.9151
vn 0.0473 -0.8192 -0.5716
vn 0.4119 0.0196 -0.9110
vn 0.8262 0.0404 -0.5619
vn -0.0083 0.4020 -0.9156
vn -0.0332 0.8190 -0.5728
vn -0.3903 -0.0199 -0.9205
vn -0.8117 -0.0404 -0.5827
vn 0.0309 0.4016 -0.9153
vn 0.5800 0.3676 -0.7270
vn 0.6242 0.3955 -0.6737
vn 0.0477 0.8187 -0.5722
vn -0.3899 0.0195 -0.9206
vn -0.3580 0.5720 -0.7380
vn -0.3860 0.6159 -0.6868
vn -0.8115 0.0404 -0.5829
vn -0.0077 -0.4016 -0.9158
vn -0.5628 -0.3673 -0.7405
vn -0.6072 -0.3946 -0.6897
vn -0.0332 -0.8188 -0.5732
vn 0.7045 -0.7096 0.0072
vn 0.5524 -0.8335 0.0079
vn 0.5525 -0.8335 0.0079
vn 0.3177 -0.9482 0.0001
vn -0.0000 -1.0000 -0.0000
vn -0.3177 -0.9482 -0.0001
vn -0.5525 -0.8335 -0.0079
vn -0.7045 -0.7097 -0.0072
vn 0.7046 0.7096 0.0072
vn 0.8329 0.5533 0.0120
vn 0.9491 0.3150 0.0080
vn 0.9491 0.3150 0.0081
vn 0.9999 -0.0000 0.0133
vn 0.9999 -0.0000 0.0134
vn 0.9491 -0.3150 0.0081
vn 0.9490 -0.3151 0.0080
vn 0.8329 -0.5533 0.0120
vn 0.7046 -0.7096 0.0072
vn -0.0319 -0.4015 0.9153
vn -0.5813 -0.3662 0.7266
vn -0.0134 -0.0000 0.9999
vn -0.0133 -0.0000 0.9999
vn -0.0135 -0.0000 0.9999
vn -0.0131 -0.0000 0.9999
vn -0.2127 0.6385 0.7396
vn -0.0132 -0.0000 0.9999
vn 0.6292 0.2030 0.7503
vn 0.1937 -0.6386 0.7448
vn 0.0134 -0.0000 -0.9999
vn 0.0135 -0.0000 -0.9999
vn 0.0133 -0.0000 -0.9999
vn 0.0132 -0.0000 -0.9999
vn 0.4122 -0.0191 -0.9109
vn -0.8092 -0.0000 -0.5876
vn 0.0066 -0.8167 -0.5770
vn 0.8237 -0.0000 -0.5670
vn 0.0073 0.8165 -0.5773
vn 0.8262 -0.0404 -0.5619
vn 0.8092 -0.0000 0.5875
vn -0.6242 -0.3957 0.6736
vn -0.0476 -0.8187 0.5722
vn -0.0073 -0.8165 0.5772
vn -0.2314 0.7027 0.6728
vn -0.8235 0.0006 0.5673
vn 0.6942 0.2230 0.6843
vn -0.0077 0.8167 0.5771
vn 0.2146 -0.7027 0.6784
vn 0.4159 -0.0000 0.9094
vn -0.0114 -0.4272 0.9041
vn -0.4371 -0.0000 0.8994
vn -0.0114 0.4270 0.9042
vn -0.4157 -0.0000 -0.9095
vn 0.0114 -0.4273 -0.9040
vn 0.4369 -0.0000 -0.8995
vn 0.0114 0.4273 -0.9040
vt 1.345057 -0.150700
vt 1.353355 -0.143896
vt 1.063244 -0.095054
vt 1.070045 -0.103352
vt 1.118890 0.186756
vt 1.110586 0.179950
vt 1.393891 -0.103356
vt 1.400697 -0.095054
vt 1.110586 -0.143892
vt 1.118890 -0.150699
vt 1.070049 0.139413
vt 1.063242 0.131109
vt 1.353355 0.179953
vt 1.345057 0.186757
vt 1.424425 -0.046546
vt 1.167400 -0.174423
vt 1.039515 0.082603
vt 1.296548 0.210481
vt 1.434900 0.018029
vt 1.231970 -0.184902
vt 1.029039 0.018029
vt 1.231970 0.220960
vt 1.424425 0.082603
vt 2.232740 -0.500000
vt 2.000000 -0.500000
vt 2.232740 -0.577324
vt 2.000000 -0.577324
vt 2.232740 -0.654647
vt 2.000000 -0.654647
vt 2.232740 -0.731971
vt 2.000000 -0.731971
vt 2.232740 -0.809295
vt 2.000000 -0.809295
vt 2.232740 -0.886619
vt 2.000000 -0.886619
vt 2.232740 -0.963942
vt 2.000000 -0.963942
vt 1.424424 -0.046546
vt 1.029040 0.018029
vt 1.296549 -0.174423
vt 1.039515 -0.046546
vt 1.167400 0.210481
vt 1.400696 0.131111
vt 1.345056 -0.150700
vt 1.118892 0.186757
vt 1.393891 0.139413
vt 1.353356 -0.143896
vt 1.070049 -0.103356
vt 1.110591 0.179953
vt 1.400696 -0.095054
vt 1.110591 -0.143896
vt 1.118892 -0.150700
vt 1.063244 0.131111
vt 1.424980 0.146703
vt 1.396000 0.182057
vt 1.452040 0.091385
vt 1.463940 0.018029
vt 1.452040 -0.055327
vt 1.424980 -0.110646
vt 1.396000 -0.146000
vt 1.360650 -0.174983
vt 1.305330 -0.202038
vt 1.231970 -0.213942
vt 1.158620 -0.202038
vt 1.103300 -0.174983
vt 1.067940 -0.146000
vt 1.038960 -0.110646
vt 1.039514 -0.046545
vt 1.011900 -0.055327
vt 1.000000 0.018029
vt 1.011900 0.091385
vt 1.038960 0.146703
vt 1.067940 0.182057
vt 1.103300 0.211040
vt 1.158620 0.238096
vt 1.231970 0.250000
vt 1.305330 0.238096
vt 1.360650 0.211040
vt 1.272505 0.018029
vt 1.231978 -0.022509
vt 1.191435 0.018029
vt 1.231969 0.058568
vt 1.231971 -0.022509
vt 1.191434 0.018029
vt 1.231968 0.058567
vt 1.231970 0.018029
s 1
usemtl Borracha
f 127/1/1 126/2/2 220/2/3 221/1/4
f 134/3/5 133/4/6 228/4/7 229/3/8
f 141/5/9 140/6/10 236/6/11 237/5/12
f 125/7/13 124/8/14 217/8/15 218/7/16
f 132/9/17 131/10/18 225/10/19 226/9/20
f 139/11/21 138/12/22 233/12/23 234/11/24
f 146/13/25 145/14/26 241/14/27 242/13/28
f 124/8/14 123/15/29 216/15/30 217/8/15
f 131/10/18 130/16/31 224/16/32 225/10/19
f 138/12/22 137/17/33 232/17/34 233/12/23
f 145/14/26 144/18/35 240/18/36 241/14/27
f 123/15/29 122/19/37 215/19/38 216/15/30
f 130/16/31 129/20/39 223/20/40 224/16/32
f 137/17/33 136/21/41 231/21/42 232/17/34
f 144/18/35 143/22/43 239/22/44 240/18/36
f 122/19/37 121/23/45 214/23/46 215/19/38
f 30/24/47 31/25/47 32/26/48
f 32/26/48 31/25/47 33/27/49
f 32/26/48 33/27/49 34/28/50
f 34/28/50 33/27/49 35/29/50
f 34/28/50 35/29/50 36/30/51
f 36/30/51 35/29/50 37/31/51
f 36/30/51 37/31/51 38/32/52
f 38/32/52 37/31/51 39/33/52
f 38/32/52 39/33/52 40/34/53
f 40/34/53 39/33/52 41/35/54
f 40/34/53 41/35/54 42/36/55
f 42/36/55 41/35/54 43/37/55
f 44/24/56 45/25/56 46/26/57
f 46/26/57 45/25/56 47/27/57
f 46/26/57 47/27/57 48/28/58
f 48/28/58 47/27/57 49/29/59
f 48/28/58 49/29/59 50/30/60
f 50/30/60 49/29/59 51/31/61
f 50/30/60 51/31/61 52/32/62
f 52/32/62 51/31/61 53/33/63
f 52/32/62 53/33/63 54/34/64
f 54/34/64 53/33/63 55/35/64
f 54/34/64 55/35/64 56/36/65
f 56/36/65 55/35/64 57/37/65
f 177/14/66 176/18/67 208/18/68 209/14/69
f 155/38/70 154/19/71 183/19/72 184/38/73
f 162/16/74 161/20/75 191/20/76 192/16/77
f 169/17/78 168/39/79 199/39/80 200/17/81
f 176/18/67 175/22/82 207/22/83 208/18/68
f 154/19/71 153/23/84 182/23/85 183/19/72
f 161/20/75 160/40/86 190/40/87 191/20/76
f 168/39/79 167/41/88 198/41/89 199/39/80
f 175/22/82 174/42/90 206/42/91 207/22/83
f 153/23/84 152/43/92 181/43/93 182/23/85
f 160/40/86 159/44/94 189/44/95 190/40/87
f 167/41/88 166/3/96 197/3/97 198/41/89
f 174/42/90 173/45/98 205/45/99 206/42/91
f 152/43/92 151/46/100 180/46/101 181/43/93
f 159/44/94 158/47/102 188/47/103 189/44/95
f 166/3/96 165/48/104 196/48/105 197/3/97
f 173/45/98 172/49/106 204/49/107 205/45/99
f 157/7/108 156/50/109 185/50/110 186/7/111
f 164/51/112 163/52/113 193/52/114 194/51/115
f 171/11/116 170/53/117 201/53/118 202/11/119
f 87/24/120 88/25/120 89/26/121
f 89/26/121 88/25/120 90/27/122
f 89/26/121 90/27/122 91/28/123
f 91/28/123 90/27/122 92/29/123
f 91/28/123 92/29/123 93/30/124
f 93/30/124 92/29/123 94/31/124
f 93/30/124 94/31/124 95/32/125
f 95/32/125 94/31/124 96/33/125
f 95/32/125 96/33/125 97/34/126
f 97/34/126 96/33/125 98/35/126
f 97/34/126 98/35/126 99/36/127
f 99/36/127 98/35/126 100/37/127
f 101/24/128 102/25/128 103/26/129
f 103/26/129 102/25/128 104/27/129
f 103/26/129 104/27/129 105/28/130
f 105/28/130 104/27/129 106/29/131
f 105/28/130 106/29/131 107/30/132
f 107/30/132 106/29/131 108/31/133
f 107/30/132 108/31/133 109/32/134
f 109/32/134 108/31/133 110/33/135
f 109/32/134 110/33/135 111/34/136
f 111/34/136 110/33/135 112/35/136
f 111/34/136 112/35/136 113/36/137
f 113/36/137 112/35/136 114/37/137
f 119/46/138 120/43/139 3/54/140 2/55/141
f 120/43/139 121/23/45 4/56/142 3/54/140
f 121/23/45 122/19/37 5/57/140 4/56/142
f 122/19/37 123/15/29 6/58/142 5/57/140
f 123/15/29 124/8/14 7/59/141 6/58/142
f 124/8/14 125/7/13 8/60/140 7/59/141
f 126/2/2 127/1/1 10/61/142 9/60/143
f 127/1/1 128/40/144 11/62/140 10/61/142
f 128/40/144 129/20/39 12/63/145 11/62/140
f 129/20/39 130/16/31 13/64/141 12/63/145
f 130/16/31 131/10/18 14/65/140 13/64/141
f 131/10/18 132/9/17 15/66/140 14/65/140
f 133/4/6 134/3/5 17/67/140 16/66/140
f 134/3/5 135/68/146 18/69/141 17/67/140
f 135/68/146 136/21/41 19/70/140 18/69/141
f 136/21/41 137/17/33 20/71/141 19/70/140
f 137/17/33 138/12/22 21/72/145 20/71/141
f 138/12/22 139/11/21 22/73/141 21/72/145
f 140/6/10 141/5/9 24/74/141 23/73/141
f 141/5/9 142/42/147 25/75/142 24/74/141
f 142/42/147 143/22/43 26/76/142 25/75/142
f 143/22/43 144/18/35 27/77/140 26/76/142
f 144/18/35 145/14/26 28/78/141 27/77/140
f 145/14/26 146/13/25 29/55/140 28/78/141
f 151/46/100 152/43/92 60/54/148 59/55/149
f 152/43/92 153/23/84 61/56/150 60/54/148
f 153/23/84 154/19/71 62/57/148 61/56/150
f 154/19/71 155/38/70 63/58/149 62/57/148
f 155/38/70 156/50/109 64/59/150 63/58/149
f 156/50/109 157/7/108 65/60/148 64/59/150
f 158/47/102 159/44/94 67/61/150 66/60/150
f 159/44/94 160/40/86 68/62/148 67/61/150
f 160/40/86 161/20/75 69/63/148 68/62/148
f 161/20/75 162/16/74 70/64/148 69/63/148
f 162/16/74 163/52/113 71/65/148 70/64/148
f 163/52/113 164/51/112 72/66/150 71/65/148
f 165/48/104 166/3/96 74/67/148 73/66/151
f 166/3/96 167/41/88 75/69/148 74/67/148
f 167/41/88 168/39/79 76/70/148 75/69/148
f 168/39/79 169/17/78 77/71/149 76/70/148
f 169/17/78 170/53/117 78/72/148 77/71/149
f 170/53/117 171/11/116 79/73/150 78/72/148
f 172/49/106 173/45/98 81/74/148 80/73/148
f 173/45/98 174/42/90 82/75/150 81/74/148
f 174/42/90 175/22/82 83/76/150 82/75/150
f 175/22/82 176/18/67 84/77/149 83/76/150
f 176/18/67 177/14/66 85/78/149 84/77/149
f 177/14/66 178/13/152 86/55/148 85/78/149
f 179/79/153 181/43/93 180/46/101
f 179/79/153 182/23/85 181/43/93
f 179/79/153 185/50/110 184/38/73
f 179/79/153 186/7/111 185/50/110
f 187/80/154 189/44/95 188/47/103
f 187/80/154 190/40/87 189/44/95
f 187/80/154 193/52/114 192/16/77
f 187/80/154 194/51/115 193/52/114
f 195/81/155 197/3/97 196/48/105
f 195/81/155 198/41/89 197/3/97
f 195/81/155 201/53/118 200/17/81
f 195/81/155 202/11/119 201/53/118
f 203/82/156 205/45/99 204/49/107
f 203/82/156 206/42/91 205/45/99
f 203/82/156 209/14/69 208/18/68
f 203/82/156 210/13/157 209/14/69
f 170/53/117 169/17/78 200/17/81 201/53/118
f 163/52/113 162/16/74 192/16/77 193/52/114
f 156/50/109 155/38/70 184/38/73 185/50/110
f 178/13/152 177/14/66 209/14/69 210/13/157
f 211/79/158 213/43/159 212/46/160
f 211/79/158 214/23/46 213/43/159
f 211/79/158 217/8/15 216/15/30
f 211/79/158 218/7/16 217/8/15
f 219/83/161 221/1/4 220/2/3
f 219/83/161 222/40/162 221/1/4
f 219/83/161 225/10/19 224/16/32
f 219/83/161 226/9/20 225/10/19
f 227/84/163 229/3/8 228/4/7
f 227/84/163 230/68/164 229/3/8
f 227/84/163 233/12/23 232/17/34
f 227/84/163 234/11/24 233/12/23
f 235/85/165 237/5/12 236/6/11
f 235/85/165 238/42/166 237/5/12
f 235/85/165 241/14/27 240/18/36
f 235/85/165 242/13/28 241/14/27
f 120/43/139 119/46/138 212/46/160 213/43/159
f 142/42/147 141/5/9 237/5/12 238/42/166
f 135/68/146 134/3/5 229/3/8 230/68/164
f 128/40/144 127/1/1 221/1/4 222/40/162
f 121/23/45 120/43/139 213/43/159 214/23/46
f 143/22/43 142/42/147 238/42/166 239/22/44
f 136/21/41 135/68/146 230/68/164 231/21/42
f 129/20/39 128/40/144 222/40/162 223/20/40
usemtl Metal
f 119/46/138 115/79/167 211/79/158 212/46/160
f 126/2/2 116/83/168 219/83/161 220/2/3
f 133/4/6 117/84/169 227/84/163 228/4/7
f 140/6/10 118/85/170 235/85/165 236/6/11
f 115/79/167 125/7/13 218/7/16 211/79/158
f 116/83/168 132/9/17 226/9/20 219/83/161
f 117/84/169 139/11/21 234/11/24 227/84/163
f 118/85/170 146/13/25 242/13/28 235/85/165
f 151/46/100 147/79/171 179/79/153 180/46/101
f 158/47/102 148/80/172 187/80/154 188/47/103
f 165/48/104 149/81/173 195/81/155 196/48/105
f 172/49/106 150/82/174 203/82/156 204/49/107
f 115/79/167 119/46/138 2/55/141 1/86/140
f 125/7/13 115/79/167 1/86/140 8/60/140
f 116/83/168 126/2/2 9/60/143 1/86/140
f 132/9/17 116/83/168 1/86/140 15/66/140
f 117/84/169 133/4/6 16/66/140 1/86/145
f 139/11/21 117/84/169 1/86/145 22/73/141
f 118/85/170 140/6/10 23/73/141 1/86/140
f 146/13/25 118/85/170 1/86/140 29/55/140
f 147/79/171 151/46/100 59/55/149 58/86/150
f 157/7/108 147/79/171 58/86/150 65/60/148
f 148/80/172 158/47/102 66/60/150 58/86/148
f 164/51/112 148/80/172 58/86/148 72/66/150
f 149/81/173 165/48/104 73/66/151 58/86/150
f 171/11/116 149/81/173 58/86/150 79/73/150
f 150/82/174 172/49/106 80/73/148 58/86/149
f 178/13/152 150/82/174 58/86/149 86/55/148
f 179/79/153 183/19/72 182/23/85
f 179/79/153 184/38/73 183/19/72
f 187/80/154 191/20/76 190/40/87
f 187/80/154 192/16/77 191/20/76
f 195/81/155 199/39/80 198/41/89
f 195/81/155 200/17/81 199/39/80
f 203/82/156 207/22/83 206/42/91
f 203/82/156 208/18/68 207/22/83
f 150/82/174 178/13/152 210/13/157 203/82/156
f 149/81/173 171/11/116 202/11/119 195/81/155
f 148/80/172 164/51/112 194/51/115 187/80/154
f 147/79/171 157/7/108 186/7/111 179/79/153
f 211/79/158 215/19/38 214/23/46
f 211/79/158 216/15/30 215/19/38
f 219/83/161 223/20/40 222/40/162
f 219/83/161 224/16/32 223/20/40
f 227/84/163 231/21/42 230/68/164
f 227/84/163 232/17/34 231/21/42
f 235/85/165 239/22/44 238/42/166
f 235/85/165 240/18/36 239/22/44
